<?xml version="1.0" encoding="iso-8859-1"?>
<!-- Generator: Adobe Illustrator 19.0.0, SVG Export Plug-In . SVG Version: 6.00 Build 0)  -->
<svg xmlns="http://www.w3.org/2000/svg" xmlns:xlink="http://www.w3.org/1999/xlink" version="1.1" id="Layer_1" x="0px" y="0px" viewBox="0 0 512 512" style="enable-background:new 0 0 512 512;" xml:space="preserve" width="512px" height="512px">
<g>
	<g>
		<path d="M256,0C115.682,0,0,114.137,0,256c0,141.146,115.052,256,256,256c141.344,0,256-115.294,256-256    C512,113.949,396.094,0,256,0z M272.696,91.984l61.004-44.323c38.16,14.283,71.383,38.613,96.348,69.945l-23.315,71.762    l-68.502,22.259l-65.535-47.613V91.984z M178.301,47.662l61.004,44.323v72.031l-65.535,47.612l-68.502-22.259l-23.315-71.762    C106.918,86.274,140.141,61.944,178.301,47.662z M70.443,378.701c-21.709-32.719-34.797-71.505-36.57-113.199l61.074-44.375    l68.376,22.217l25.08,77.191l-42.259,58.165H70.443z M315.455,470.302c-18.961,5.269-38.841,8.307-59.455,8.307    s-40.495-3.038-59.454-8.307l-23.385-71.976l42.206-58.092h81.269l42.206,58.092L315.455,470.302z M365.855,378.701    l-42.258-58.165l25.08-77.191l68.378-22.217l61.074,44.371c-1.772,41.695-14.862,80.481-36.571,113.202H365.855z" fill="#FFFFFF"/>
	</g>
</g>
<g>
</g>
<g>
</g>
<g>
</g>
<g>
</g>
<g>
</g>
<g>
</g>
<g>
</g>
<g>
</g>
<g>
</g>
<g>
</g>
<g>
</g>
<g>
</g>
<g>
</g>
<g>
</g>
<g>
</g>
</svg>
